<svg width="38" height="30" viewBox="0 0 38 30" fill="none" xmlns="http://www.w3.org/2000/svg">
<path d="M28 9C28 9.55229 28.4477 10 29 10C29.5523 10 30 9.55229 30 9H28ZM9 22C9.55229 22 10 21.5523 10 21C10 20.4477 9.55229 20 9 20V22ZM13 10H33V8H13V10ZM36 13V25H38V13H36ZM33 28H13V30H33V28ZM10 25V13H8V25H10ZM13 28C11.3431 28 10 26.6569 10 25H8C8 27.7614 10.2386 30 13 30V28ZM36 25C36 26.6569 34.6569 28 33 28V30C35.7614 30 38 27.7614 38 25H36ZM33 10C34.6569 10 36 11.3431 36 13H38C38 10.2386 35.7614 8 33 8V10ZM13 8C10.2386 8 8 10.2386 8 13H10C10 11.3431 11.3431 10 13 10V8ZM5 2H25V0H5V2ZM2 17V5H0V17H2ZM5 20C3.34315 20 2 18.6569 2 17H0C0 19.7614 2.23858 22 5 22V20ZM25 2C26.6569 2 28 3.34315 28 5H30C30 2.23858 27.7614 0 25 0V2ZM5 0C2.23858 0 0 2.23858 0 5H2C2 3.34315 3.34315 2 5 2V0ZM28 5V9H30V5H28ZM9 20H5V22H9V20ZM26 19C26 20.6569 24.6569 22 23 22V24C25.7614 24 28 21.7614 28 19H26ZM23 22C21.3431 22 20 20.6569 20 19H18C18 21.7614 20.2386 24 23 24V22ZM20 19C20 17.3431 21.3431 16 23 16V14C20.2386 14 18 16.2386 18 19H20ZM23 16C24.6569 16 26 17.3431 26 19H28C28 16.2386 25.7614 14 23 14V16Z" fill="#5A67D8"/>
</svg>
